# xmcd
#
# Track frame offsets: 
#        150
#        15305
#        30077
#        54587
#        66254
#        91976
#        105310
#        126321
#        137199
#        151191
#        165136
#        189643
#
# Disc length: 2586 seconds
#
# Revision: 2
# Processed by: cddbd v1.5.1PL2 Copyright (c) Steve Scherf et al.
# Submitted via: ExactAudioCopy v0.95b3
#
DISCID=890a180c
DTITLE=Dzem - Akustycznie - suplement
DYEAR=1994
DGENRE=Blues
TTITLE0=Harley moj
TTITLE1=Kiepska gra
TTITLE2=Autsajder
TTITLE3=Po co?
TTITLE4=Naiwne pytania
TTITLE5=Cala w trawie
TTITLE6=Taniec smierci
TTITLE7=Koszmarna noc
TTITLE8=Czlowieku co sie z toba dzieje
TTITLE9=Sen o Victorii
TTITLE10=Whisky
TTITLE11=Modlitwa III (pozwol mi)
EXTD=
EXTT0=
EXTT1=
EXTT2=
EXTT3=
EXTT4=
EXTT5=
EXTT6=
EXTT7=
EXTT8=
EXTT9=
EXTT10=
EXTT11=
PLAYORDER=
